<svg width="113" height="28" viewBox="0 0 113 28" fill="none" xmlns="http://www.w3.org/2000/svg">
<path d="M59.7734 6.30859C59.5156 6.33203 59.2695 6.37891 59.0352 6.44922C58.8008 6.51953 58.5586 6.62891 58.3086 6.77734C57.9727 6.97266 57.7109 7.18359 57.5234 7.41016C57.3438 7.62891 57.1641 7.93359 56.9844 8.32422C56.7422 8.86328 56.4023 9.65234 55.9648 10.6914C55.5273 11.7227 55.0273 12.8984 54.4648 14.2188C53.9648 15.4062 53.4219 16.707 52.8359 18.1211C52.2578 19.5352 51.7031 20.8906 51.1719 22.1875H48.8164C47.7227 19.5078 46.6094 16.7852 45.4766 14.0195C44.3438 11.2539 43.5469 9.33203 43.0859 8.25391C42.9062 7.86328 42.7305 7.57031 42.5586 7.375C42.3945 7.17188 42.1289 6.96484 41.7617 6.75391C41.4961 6.60547 41.2617 6.50391 41.0586 6.44922C40.8555 6.38672 40.5859 6.33203 40.25 6.28516V5.37109H49.2617V6.26172C48.418 6.36328 47.8438 6.47266 47.5391 6.58984C47.2422 6.69922 47.0938 6.83984 47.0938 7.01172C47.0938 7.09766 47.1055 7.19141 47.1289 7.29297C47.1602 7.38672 47.2031 7.51562 47.2578 7.67969C47.5078 8.36719 47.9609 9.49219 48.6172 11.0547C49.2734 12.6094 50.2461 14.9844 51.5352 18.1797C52.3242 16.2344 52.9805 14.5898 53.5039 13.2461C54.0273 11.9023 54.4883 10.7148 54.8867 9.68359C55.082 9.18359 55.2422 8.71875 55.3672 8.28906C55.5 7.85156 55.5664 7.52344 55.5664 7.30469C55.5664 7.05469 55.3867 6.84766 55.0273 6.68359C54.668 6.51172 54.0039 6.38672 53.0352 6.30859V5.37109H59.7734V6.30859ZM67.3906 22H59.9844V21.1445C60.1875 21.1289 60.3867 21.1094 60.582 21.0859C60.7773 21.0625 60.9453 21.0234 61.0859 20.9688C61.3359 20.875 61.5117 20.7422 61.6133 20.5703C61.7148 20.3906 61.7656 20.1562 61.7656 19.8672V13.0469C61.7656 12.7734 61.7031 12.5352 61.5781 12.332C61.4531 12.1211 61.2969 11.9531 61.1094 11.8281C60.9688 11.7344 60.7539 11.6445 60.4648 11.5586C60.1836 11.4727 59.9258 11.418 59.6914 11.3945V10.5391L65.4336 10.2344L65.6094 10.4102V19.7148C65.6094 19.9883 65.668 20.2227 65.7852 20.418C65.9023 20.6055 66.0703 20.7461 66.2891 20.8398C66.4453 20.9102 66.6172 20.9727 66.8047 21.0273C66.9922 21.082 67.1875 21.1211 67.3906 21.1445V22ZM65.6797 6.01562C65.6797 6.60938 65.4492 7.11719 64.9883 7.53906C64.5352 7.95312 63.9961 8.16016 63.3711 8.16016C62.7383 8.16016 62.1914 7.95312 61.7305 7.53906C61.2773 7.11719 61.0508 6.60938 61.0508 6.01562C61.0508 5.42187 61.2773 4.91406 61.7305 4.49219C62.1914 4.07031 62.7383 3.85938 63.3711 3.85938C64.0039 3.85938 64.5469 4.07031 65 4.49219C65.4531 4.91406 65.6797 5.42187 65.6797 6.01562ZM73.8945 22.3984C73.1367 22.3984 72.3945 22.2852 71.668 22.0586C70.9492 21.8398 70.3906 21.6055 69.9922 21.3555L69.6406 22.1523H68.7266L68.5742 17.7812H69.4297C69.5469 18.1328 69.7422 18.5312 70.0156 18.9766C70.2891 19.4141 70.6016 19.8086 70.9531 20.1602C71.3203 20.5117 71.7383 20.8086 72.207 21.0508C72.6836 21.293 73.1914 21.4141 73.7305 21.4141C74.4414 21.4141 74.9688 21.2773 75.3125 21.0039C75.6641 20.7227 75.8398 20.293 75.8398 19.7148C75.8398 19.4023 75.7617 19.1445 75.6055 18.9414C75.4492 18.7383 75.2344 18.5625 74.9609 18.4141C74.6562 18.2578 74.3203 18.125 73.9531 18.0156C73.5938 17.9062 73.1484 17.7734 72.6172 17.6172C72.0859 17.4609 71.6289 17.3047 71.2461 17.1484C70.8711 16.9844 70.4805 16.7305 70.0742 16.3867C69.7227 16.082 69.4414 15.7148 69.2305 15.2852C69.0195 14.8555 68.9141 14.3438 68.9141 13.75C68.9141 12.6484 69.375 11.7578 70.2969 11.0781C71.2266 10.3984 72.4414 10.0586 73.9414 10.0586C74.6523 10.0586 75.3047 10.1328 75.8984 10.2812C76.5 10.4219 77.0039 10.5781 77.4102 10.75L77.6562 10.0586H78.5469L78.7344 14.0547H77.9023C77.6289 13.2422 77.1602 12.543 76.4961 11.957C75.832 11.3633 75.1172 11.0664 74.3516 11.0664C73.75 11.0664 73.2773 11.1914 72.9336 11.4414C72.5898 11.6914 72.418 12.0391 72.418 12.4844C72.418 13.0781 72.668 13.5078 73.168 13.7734C73.6758 14.0391 74.3828 14.2891 75.2891 14.5234C76.6875 14.8828 77.7109 15.375 78.3594 16C79.0078 16.6172 79.332 17.4062 79.332 18.3672C79.332 19.6484 78.8281 20.6406 77.8203 21.3438C76.8203 22.0469 75.5117 22.3984 73.8945 22.3984ZM88.1797 22H80.7734V21.1445C80.9766 21.1289 81.1758 21.1094 81.3711 21.0859C81.5664 21.0625 81.7344 21.0234 81.875 20.9688C82.125 20.875 82.3008 20.7422 82.4023 20.5703C82.5039 20.3906 82.5547 20.1562 82.5547 19.8672V13.0469C82.5547 12.7734 82.4922 12.5352 82.3672 12.332C82.2422 12.1211 82.0859 11.9531 81.8984 11.8281C81.7578 11.7344 81.543 11.6445 81.2539 11.5586C80.9727 11.4727 80.7148 11.418 80.4805 11.3945V10.5391L86.2227 10.2344L86.3984 10.4102V19.7148C86.3984 19.9883 86.457 20.2227 86.5742 20.418C86.6914 20.6055 86.8594 20.7461 87.0781 20.8398C87.2344 20.9102 87.4062 20.9727 87.5938 21.0273C87.7812 21.082 87.9766 21.1211 88.1797 21.1445V22ZM86.4688 6.01562C86.4688 6.60938 86.2383 7.11719 85.7773 7.53906C85.3242 7.95312 84.7852 8.16016 84.1602 8.16016C83.5273 8.16016 82.9805 7.95312 82.5195 7.53906C82.0664 7.11719 81.8398 6.60938 81.8398 6.01562C81.8398 5.42187 82.0664 4.91406 82.5195 4.49219C82.9805 4.07031 83.5273 3.85938 84.1602 3.85938C84.793 3.85938 85.3359 4.07031 85.7891 4.49219C86.2422 4.91406 86.4688 5.42187 86.4688 6.01562ZM97.9766 21.4609C97.4766 21.6797 96.9414 21.875 96.3711 22.0469C95.8008 22.2266 95.1055 22.3164 94.2852 22.3164C93.0664 22.3164 92.1602 22.0195 91.5664 21.4258C90.9805 20.832 90.6875 19.9844 90.6875 18.8828V11.6875H88.5781V10.4219H90.7344V6.87109H94.543V10.4219H97.8242V11.6875H94.5664V18.1094C94.5664 19.0234 94.6914 19.6719 94.9414 20.0547C95.1992 20.4375 95.6562 20.6289 96.3125 20.6289C96.5234 20.6289 96.8164 20.6133 97.1914 20.582C97.5664 20.5508 97.8281 20.5156 97.9766 20.4766V21.4609ZM112.039 11.2305C111.688 11.2852 111.344 11.418 111.008 11.6289C110.68 11.8398 110.406 12.168 110.188 12.6133C109.516 14.0352 108.824 15.5508 108.113 17.1602C107.402 18.7617 106.613 20.4961 105.746 22.3633C105.262 23.4102 104.793 24.2461 104.34 24.8711C103.887 25.4961 103.461 25.9766 103.062 26.3125C102.688 26.625 102.316 26.8516 101.949 26.9922C101.582 27.1328 101.211 27.2031 100.836 27.2031C100.094 27.2031 99.4922 26.9961 99.0312 26.582C98.5781 26.168 98.3516 25.7031 98.3516 25.1875C98.3516 24.9688 98.375 24.7656 98.4219 24.5781C98.4766 24.3906 98.5859 24.1953 98.75 23.9922C98.875 23.8203 99.0664 23.6719 99.3242 23.5469C99.5898 23.4297 99.8867 23.3711 100.215 23.3711C100.652 23.3711 101.07 23.5234 101.469 23.8281C101.867 24.1328 102.281 24.5547 102.711 25.0938C102.969 24.8359 103.285 24.4492 103.66 23.9336C104.043 23.4258 104.324 22.9023 104.504 22.3633C103.574 20.4102 102.75 18.7188 102.031 17.2891C101.312 15.8516 100.508 14.25 99.6172 12.4844C99.4219 12.1094 99.1602 11.8203 98.832 11.6172C98.5039 11.4062 98.1562 11.2773 97.7891 11.2305V10.375H104.961V11.2305C104.695 11.2383 104.387 11.2969 104.035 11.4062C103.691 11.5156 103.52 11.6562 103.52 11.8281C103.52 11.8906 103.531 11.9609 103.555 12.0391C103.578 12.1094 103.621 12.2148 103.684 12.3555C103.949 12.9023 104.324 13.6641 104.809 14.6406C105.301 15.6094 105.871 16.7461 106.52 18.0508C107.004 16.9414 107.414 15.9883 107.75 15.1914C108.094 14.3867 108.426 13.5977 108.746 12.8242C108.824 12.6289 108.867 12.4766 108.875 12.3672C108.891 12.25 108.898 12.1719 108.898 12.1328C108.898 11.9922 108.828 11.8711 108.688 11.7695C108.555 11.6602 108.395 11.5664 108.207 11.4883C108.012 11.4102 107.824 11.3516 107.645 11.3125C107.465 11.2734 107.316 11.2461 107.199 11.2305V10.375H112.039V11.2305Z" fill="white"/>
<path d="M7.98872 0C12.4118 0 15.9774 3.89771 15.9774 8.66667V15L3.29478 3.57672L13 17.3333H7.98872C3.56559 17.3333 0 13.4356 0 8.66667V0H7.98872Z" fill="white"/>
<path d="M21.3479 2.88892C15.4354 2.88892 10.6963 8.07057 10.6963 14.4445L10.9995 24L27.6215 7.65788L12.9995 26H21.3479C27.2605 26 31.9995 20.8184 31.9995 14.4445V2.88892H21.3479Z" fill="#00996D"/>
</svg>
